<?xml version="1.0" encoding="UTF-8" standalone="no"?>
<!-- Created with Inkscape (http://www.inkscape.org/) -->

<svg
   version="1.1"
   id="svg59"
   width="1368"
   height="1368"
   viewBox="0 0 1368 1368"
   sodipodi:docname="logo.svg"
   inkscape:version="1.2.2 (732a01da63, 2022-12-09)"
   xmlns:inkscape="http://www.inkscape.org/namespaces/inkscape"
   xmlns:sodipodi="http://sodipodi.sourceforge.net/DTD/sodipodi-0.dtd"
   xmlns="http://www.w3.org/2000/svg"
   xmlns:svg="http://www.w3.org/2000/svg">
  <defs
     id="defs63" />
  <sodipodi:namedview
     id="namedview61"
     pagecolor="#ffffff"
     bordercolor="#000000"
     borderopacity="0.25"
     inkscape:showpageshadow="2"
     inkscape:pageopacity="0.0"
     inkscape:pagecheckerboard="0"
     inkscape:deskcolor="#d1d1d1"
     showgrid="false"
     inkscape:zoom="0.60599415"
     inkscape:cx="684"
     inkscape:cy="683.17491"
     inkscape:window-width="3840"
     inkscape:window-height="1009"
     inkscape:window-x="-8"
     inkscape:window-y="-8"
     inkscape:window-maximized="1"
     inkscape:current-layer="g65" />
  <g
     inkscape:groupmode="layer"
     inkscape:label="Image"
     id="g65">
    <path
       style="fill:#000000;stroke-width:1.33333"
       d="M 786.66667,1161.9773 C 779.7,1160.9751 761.4,1158.8649 746,1157.2881 c -15.4,-1.5769 -32.8,-3.7109 -38.66667,-4.7424 -5.86666,-1.0315 -13.60589,-1.8762 -17.19829,-1.8772 -3.59239,-10e-4 -17.69239,-1.4595 -31.33333,-3.2412 -13.64094,-1.7816 -28.70171,-3.6136 -33.46838,-4.071 -49.91088,-4.7894 -59.4734,-9.6868 -61.0162,-31.2494 -0.80712,-11.2806 2.42146,-19.1611 10.45779,-25.526 l 5.23171,-4.1436 21.66334,0.5874 c 19.11898,0.5184 65.07427,5.2796 118.33003,12.2596 14.38375,1.8852 22.89947,2.7671 59.33333,6.1444 34.33447,3.1828 45.77107,6.8296 53.06058,16.9199 4.7636,6.5939 6.33762,18.0415 3.61498,26.2911 -1.95658,5.9285 -8.27464,13.4064 -13.69549,16.2096 -5.46109,2.8241 -20.53999,3.3012 -35.64673,1.128 z m 34,-110.2116 c -33.11355,-4.2769 -71.2427,-8.8106 -87.33334,-10.3841 -7.7,-0.753 -23.9,-2.5809 -36,-4.0621 -12.1,-1.4811 -35.2,-4.1749 -51.33333,-5.9862 -16.13333,-1.8113 -34.06953,-3.8457 -39.85821,-4.5209 -10.22898,-1.1933 -10.86618,-1.096 -22.66439,3.4605 -11.20587,4.3277 -13.01131,4.6459 -23.47512,4.1376 -13.58033,-0.6597 -20.297,-3.9824 -30.40343,-15.0405 -8.40718,-9.1988 -11.51453,-18.4945 -10.64296,-31.83865 1.01619,-15.55824 9.92311,-28.94458 24.37744,-36.63719 5.8702,-3.12413 8.17995,-3.54833 19.33334,-3.55073 15.05997,-0.003 20.57446,2.27693 31.68909,13.103 l 7.02243,6.8401 20.3109,2.30626 c 11.171,1.26842 61.11091,6.83202 110.97758,12.36354 49.86666,5.53152 93.36666,10.60027 96.66666,11.26387 25.71442,5.17103 27.04484,5.84252 33.20622,16.7599 6.65448,11.7911 5.21125,24.2155 -3.90535,33.6201 -9.01371,9.2984 -16.58673,10.9271 -37.96753,8.1655 z m 26.66666,-101.54437 c -7.3364,-2.41521 -10.94988,-4.4446 -18.4215,-10.34586 -4.54566,-3.59027 -8.24584,-5.31264 -12.66667,-5.89615 -3.43484,-0.45336 -9.24516,-1.37036 -12.91183,-2.03777 -3.66666,-0.66743 -14.76666,-1.84262 -24.66666,-2.61154 -9.9,-0.76892 -24,-2.2719 -31.33334,-3.33996 C 740,924.922 724.7,923.14211 713.33333,922.03473 701.96667,920.92737 686.06667,919.10315 678,917.98089 c -8.06667,-1.12224 -21.23656,-2.6402 -29.26643,-3.37324 -8.02986,-0.73305 -18.52986,-1.92609 -23.33333,-2.65121 -10.75171,-1.62307 -89.3708,-10.57341 -101.71808,-11.58005 -5.65641,-0.46116 -9.60763,-1.48231 -10.66667,-2.75671 -1.25108,-1.50548 -1.853,-13.68501 -2.34882,-47.52669 L 510,804.59052 l -5.54189,-5.00435 c -3.04803,-2.75238 -9.64803,-7.98538 -14.66667,-11.62888 -5.01863,-3.64349 -11.2968,-8.39282 -13.95149,-10.55406 -2.6547,-2.16123 -11.3547,-8.85263 -19.33334,-14.86976 -7.97864,-6.01712 -16.65516,-12.79871 -19.28117,-15.07019 -2.626,-2.27147 -8.56801,-6.82995 -13.20447,-10.12995 -19.0605,-13.56634 -30.03884,-28.20804 -38.51504,-51.36712 l -2.94034,-8.03378 0.46432,-161.96622 c 0.48969,-170.8139 0.65666,-175.55077 6.5999,-187.22573 5.24238,-10.29817 15.64131,-24.51087 21.32634,-29.14769 8.89581,-7.2556 25.53926,-14.7877 43.04385,-19.47975 8.8,-2.35881 20.5,-5.76396 26,-7.56699 5.5,-1.80302 15.7,-4.74778 22.66667,-6.5439 6.96666,-1.79611 17.76666,-4.69596 24,-6.44411 34.67497,-9.72464 91.27553,-25.81507 108.66666,-30.89179 11,-3.21106 24.19088,-6.79862 29.31308,-7.97236 5.12219,-1.17373 11.89316,-3.01002 15.04659,-4.08064 12.16377,-4.1297 35.29593,-2.04077 59.64033,5.3858 5.86667,1.7897 16.66667,4.82216 24,6.7388 7.33334,1.91666 16.78572,4.63471 21.00531,6.04015 4.21959,1.40543 8.41959,2.55383 9.33333,2.55199 2.10174,-0.004 38.34332,10.07433 69.66136,19.3724 13.2,3.91898 30.6,8.91374 38.66667,11.09948 8.06667,2.18573 17.96667,4.98001 22,6.20949 4.03333,1.22949 15.13333,4.31657 24.66667,6.86019 13.18466,3.51782 19.56722,6.01602 26.66666,10.43758 19.32535,12.03592 29.50277,23.92219 37.12427,43.35754 l 2.8757,7.33333 0.3772,164.66667 c 0.3786,165.27024 0.2378,171.3562 -4.3469,187.91104 -3.6293,13.1048 -14.46037,26.05465 -34.69693,41.48433 -18.87004,14.38775 -19.98258,15.62212 -21.85512,24.24856 -0.91262,4.20416 -2.22763,7.99519 -2.92228,8.42451 -0.69466,0.42932 -2.08831,2.68954 -3.09703,5.02273 -2.56944,5.94323 -13.53939,16.53065 -21.45891,20.71063 -5.85056,3.08797 -8.21726,3.51872 -19.33333,3.51872 -11.15639,0 -13.46155,-0.42304 -19.33333,-3.54802 -8.0259,-4.2714 -16.58579,-12.93346 -20.85688,-21.10584 -2.65183,-5.07405 -3.13534,-7.95477 -3.13303,-18.66666 0.003,-11.15339 0.4266,-13.46314 3.55073,-19.33334 7.3859,-13.878 22.80364,-24.37656 37.68908,-25.664 9.75687,-0.84386 13.44314,-2.62341 26.9345,-13.00266 12.85241,-9.88768 17.19608,-14.30039 20.91438,-21.24676 L 956.66667,670 957.06163,555.33333 c 0.4722,-137.09192 -0.785,-197.52521 -4.16048,-199.99342 -1.22896,-0.89864 -2.23448,-2.19598 -2.23448,-2.88296 0,-1.58978 -9.14599,-10.37375 -12.66667,-12.16531 -4.79184,-2.4384 -34.43084,-11.92729 -44.66667,-14.29999 -5.5,-1.27492 -22.6,-5.91945 -38,-10.32117 -15.4,-4.40173 -31.34261,-8.74972 -35.42804,-9.6622 -4.08542,-0.91247 -8.85173,-2.42097 -10.59181,-3.35224 -1.74007,-0.93125 -8.29745,-3.02276 -14.57196,-4.64779 -6.27451,-1.62501 -23.10819,-6.38289 -37.40819,-10.57304 -50.6439,-14.83957 -61.59904,-16.37509 -75.92684,-10.64225 -2.79577,1.11865 -13.70596,4.31471 -24.24485,7.10235 -40.40831,10.6884 -66.8648,18.01673 -95.16164,26.35937 -30.39565,8.96141 -41.32801,12.06351 -70.66667,20.05189 -22.92844,6.24302 -32.27536,10.67182 -39.35545,18.64758 -10.82753,12.19729 -9.93131,-2.12887 -10.36952,165.75737 l -0.39164,150.04487 3.44717,7.5296 c 3.71772,8.12056 12.23384,16.81245 27.80679,28.38068 4.936,3.66666 15.76404,12.06666 24.06231,18.66666 8.29828,6.6 17.93025,14.1 21.4044,16.66667 15.27477,11.28485 19.43873,14.46067 28.84514,22 5.48966,4.4 12.79079,10.1 16.22476,12.66667 l 6.24359,4.66666 0.0412,32.74516 c 0.0303,24.09106 0.48171,33.32098 1.70789,34.9239 2.11547,2.76542 25.30283,7.27706 46.23466,8.99602 21.61746,1.77527 66.99452,6.65252 68.06834,7.31618 1.25831,0.77768 20.47924,3.0659 39.36367,4.6862 8.8,0.75504 24.7,2.57992 35.33333,4.05529 10.63334,1.47537 30.40375,3.81573 43.93424,5.20083 l 24.60091,2.51832 10.06576,-5.55428 c 9.826,-5.42198 10.36748,-5.55419 22.73243,-5.5506 10.70409,0.003 13.5963,0.48954 18.66666,3.13944 8.17238,4.27109 16.83444,12.83098 21.10584,20.85688 3.12414,5.8702 3.54834,8.17994 3.55074,19.33333 0.003,10.71189 -0.4812,13.59261 -3.13303,18.66667 -4.30816,8.24329 -12.88697,16.88365 -20.85688,21.00652 -8.00044,4.13866 -24.63853,5.41054 -33.33333,2.54814 z M 696,727.82989 c -3.3,-0.7393 -12.9,-2.84593 -21.33333,-4.68137 -24.47788,-5.32743 -123.6311,-29.49444 -135.33334,-32.98536 -11.49982,-3.43053 -14.61986,-6.73288 -7.75525,-8.20839 21.17889,-4.55229 75.84668,-21.85694 145.08859,-45.92664 44.73573,-15.5509 46.70941,-16.16788 52.66666,-16.46334 L 734,619.33333 l 0.35083,46.51788 0.35081,46.5179 -3.48184,4.56492 c -1.91501,2.51072 -4.77288,5.15885 -6.35083,5.88474 -1.57793,0.72591 -4.36897,2.14871 -6.2023,3.1618 -4.6378,2.56282 -15.51918,3.45062 -22.66667,1.84932 z m 50.66667,-9.71934 c 0,-0.30588 1.31026,-3.45588 2.9117,-7 2.84159,-6.28867 2.92535,-8.04974 3.47724,-73.11055 l 0.56552,-66.66667 5.90495,-3.64577 c 6.17961,-3.81536 14.53545,-6.86051 41.14059,-14.99301 8.8,-2.68994 17.5,-5.51315 19.33333,-6.2738 10.45169,-4.33644 39.60103,-13.67876 49.35007,-15.81662 24.85334,-5.45004 36.88801,-4.90498 48.15332,2.18088 l 4.8367,3.04228 0.61228,54.4197 c 0.68318,60.72129 0.98428,58.40584 -8.59834,66.11749 -12.23834,9.84881 -19.86274,13.12632 -75.68736,32.53573 -77.3237,26.88431 -92,31.5441 -92,29.21034 z m -244,-44.22284 c -6.76814,-1.19659 -18.0855,-4.83186 -20.4694,-6.575 -2.21782,-1.62171 -2.56951,-5.08042 -3.61528,-35.55459 -0.63716,-18.56696 -1.32876,-79.44117 -1.5369,-135.27601 -0.43025,-115.4216 -1.51117,-105.00822 11.34306,-109.2777 5.4268,-1.80249 9.88072,-2.09676 22.84318,-1.50925 8.8561,0.4014 18.802,1.39731 22.102,2.21313 3.3,0.81583 9.3,2.29626 13.33334,3.28986 9.39932,2.31548 46.38477,13.32664 81.33333,24.21422 15.03333,4.68338 28.95872,8.89038 30.94531,9.34891 7.33145,1.6922 7.02642,-2.50839 7.42173,102.20195 l 0.36704,97.22141 -3.03371,2.53453 c -4.36777,3.64912 -29.71885,14.1902 -39.78889,16.5444 -9.26968,2.1671 -19.01847,5.35848 -41.91148,13.72026 -8.06667,2.94637 -20.66667,6.95886 -28,8.91662 -7.33333,1.95778 -15.56135,4.41742 -18.28447,5.46588 -5.01532,1.93102 -26.93092,3.603 -33.04886,2.52138 z M 692.87692,565.77836 c -7.05479,-3.801 -8.05084,-8.66271 -8.61613,-42.05532 -0.44174,-26.09395 -0.19296,-31.23913 1.80058,-37.24117 5.36678,-16.15782 9.89836,-19.8152 24.55151,-19.8152 14.53731,0 31.92003,4.34336 80.72045,20.16936 13.2,4.28076 33.6,10.72804 45.33334,14.32729 31.00518,9.51097 43.32445,13.96999 43.32917,15.68321 0.005,1.7036 -8.15208,4.59091 -21.97749,7.77951 -13.9764,3.22343 -60.10044,16.99128 -94.68502,28.26312 -16.86666,5.4972 -34.56666,10.93524 -39.33333,12.08453 -12.34227,2.97584 -26.41785,3.33976 -31.12308,0.80467 z M 712,428.74127 c -4.03333,-1.03079 -12.73333,-3.4589 -19.33333,-5.39578 -6.6,-1.93688 -18.9,-5.50516 -27.33334,-7.9295 -12.32841,-3.54408 -89.75864,-26.88634 -119.19628,-35.93314 -3.59129,-1.10368 -9.74129,-2.40796 -13.66666,-2.8984 -4.34147,-0.54242 -7.13706,-1.54398 -7.13706,-2.55694 0,-1.7512 8.10406,-5.17574 16,-6.76111 C 543.9,366.75105 557.7,362.53863 572,357.90545 c 49.65361,-16.08765 113.12765,-32.80402 131.39605,-34.60414 13.74855,-1.35476 27.40931,1.2265 56.60395,10.69556 14.3,4.6381 33.2,10.6637 42,13.39025 15.50875,4.80513 51.97833,17.91531 70.33333,25.28357 8.66636,3.47895 9,3.7829 9,8.1988 0,4.45611 -0.31978,4.73298 -11.29682,9.78039 -6.21326,2.85696 -17.46326,7.08307 -25,9.39136 -7.53675,2.30829 -20.90318,6.51496 -29.70318,9.34816 -8.8,2.8332 -19.9,6.11873 -24.66666,7.30117 -4.76667,1.18246 -15.86667,4.5732 -24.66667,7.535 -14.23095,4.78968 -17.69535,5.44064 -31.33333,5.88748 -10.33898,0.33876 -17.72194,-0.10813 -22.66667,-1.37178 z"
       id="path179" />
  </g>
</svg>
